<?xml version="1.0" standalone="no"?>
<!DOCTYPE svg PUBLIC "-//W3C//DTD SVG 20010904//EN"
 "http://www.w3.org/TR/2001/REC-SVG-20010904/DTD/svg10.dtd">
<svg version="1.0" xmlns="http://www.w3.org/2000/svg"
 width="905.000000pt" height="1280.000000pt" viewBox="0 0 905.000000 1280.000000"
 preserveAspectRatio="xMidYMid meet">
<metadata>
Created by potrace 1.15, written by Peter Selinger 2001-2017
</metadata>
<g transform="translate(0.000000,1280.000000) scale(0.100000,-0.100000)"
fill="#000000" stroke="none">
<path d="M2507 7413 c-4 -3 -7 -39 -7 -79 l0 -73 93 -45 c203 -100 371 -275
506 -526 113 -214 204 -473 330 -949 89 -332 99 -406 62 -453 -21 -26 -79 -48
-127 -48 -53 0 -60 -12 -46 -76 16 -77 92 -231 134 -270 45 -43 102 -72 171
-86 54 -11 58 -14 67 -48 5 -19 118 -451 251 -960 l241 -925 -5 -115 c-8 -159
-32 -282 -83 -439 -89 -272 -220 -498 -379 -655 -55 -54 -167 -136 -186 -136
-5 0 -1 19 7 43 40 111 23 313 -35 432 -72 146 -204 257 -368 311 -74 25 -104
29 -194 29 -101 0 -108 -1 -180 -37 -125 -62 -218 -171 -266 -313 -26 -75 -28
-90 -28 -260 0 -165 3 -188 28 -280 33 -119 117 -294 187 -386 149 -199 374
-349 589 -395 88 -18 298 -18 402 1 590 109 1063 647 1423 1620 165 442 195
551 632 2245 201 778 383 1485 405 1570 117 454 259 730 440 856 26 18 39 33
35 43 -2 9 -23 68 -46 131 -23 63 -50 151 -59 195 l-18 80 -604 0 -604 0 -3
-77 -3 -77 55 -35 c162 -104 220 -235 219 -496 -1 -291 -25 -403 -334 -1565
-131 -495 -239 -906 -239 -913 0 -7 -3 -12 -7 -12 -7 0 -114 401 -113 426 0 6
13 14 30 17 98 20 154 148 129 294 -12 69 -15 72 -82 97 -96 36 -193 151 -250
296 -43 111 -258 962 -297 1180 -18 95 -16 235 3 300 9 30 30 77 48 105 19 30
28 54 23 61 -5 6 -38 46 -72 90 -35 43 -96 131 -136 194 l-72 115 -831 3
c-456 1 -833 -1 -836 -5z m1685 -185 c37 -57 89 -130 116 -162 l48 -60 -28
-51 c-69 -128 -61 -349 26 -695 54 -219 206 -791 223 -845 63 -201 180 -365
296 -414 50 -21 57 -34 57 -97 0 -84 -47 -138 -130 -149 -28 -4 -50 -11 -50
-16 0 -23 193 -745 201 -754 6 -6 12 -6 18 0 7 9 463 1723 550 2070 131 525
143 827 39 1043 -30 64 -103 147 -178 205 l-35 26 537 1 536 0 7 -32 c4 -18
25 -88 47 -155 l40 -123 -50 -45 c-143 -128 -284 -393 -366 -685 -19 -69 -206
-790 -416 -1604 -417 -1617 -433 -1676 -554 -2041 -235 -707 -471 -1153 -776
-1469 -279 -288 -556 -418 -895 -419 -148 0 -223 17 -361 83 -201 97 -353 249
-458 457 -39 78 -86 211 -85 240 0 10 8 -7 18 -37 80 -248 293 -457 551 -541
166 -55 388 -50 573 12 301 100 593 370 830 768 160 267 289 566 433 996 120
361 138 426 550 2000 206 787 391 1486 410 1555 141 505 248 742 411 912 107
110 134 103 -401 106 -534 3 -515 7 -431 -88 173 -195 193 -511 66 -1040 -16
-69 -151 -588 -300 -1155 -364 -1391 -382 -1460 -385 -1463 -3 -3 -12 29 -215
793 l-138 520 -69 23 c-85 30 -135 65 -186 134 -66 88 -113 201 -133 320 -6
40 11 64 19 26 32 -145 50 -206 72 -249 56 -111 187 -199 296 -199 115 0 168
47 168 151 0 65 -3 69 -82 93 -91 27 -136 68 -185 166 -63 128 -307 1042 -364
1370 -38 211 -25 423 31 518 11 18 20 44 20 58 l0 24 -700 0 -700 0 0 -26 c0
-14 -3 -24 -7 -22 -35 15 -113 59 -113 63 0 3 346 5 768 5 l768 0 66 -102z
m-1093 -348 c165 -246 229 -419 420 -1126 107 -396 118 -461 85 -529 -16 -35
-65 -65 -105 -65 -18 0 -14 5 21 23 100 51 104 128 24 436 -80 310 -176 638
-229 787 -98 271 -222 492 -366 650 l-72 79 80 -80 c43 -44 107 -123 142 -175z
m811 -1628 c33 -102 40 -200 16 -255 -13 -32 -78 -97 -97 -97 -5 0 -25 -6 -44
-14 l-34 -14 65 -252 c36 -139 63 -254 61 -256 -2 -2 -32 105 -67 239 -35 133
-67 250 -72 260 -5 10 -20 17 -37 17 -90 0 -199 79 -250 182 -36 71 -39 98
-13 98 14 0 18 -6 15 -27 -6 -43 52 -131 111 -167 87 -54 210 -47 281 16 68
59 85 190 37 285 -12 23 -24 61 -27 85 -6 42 -6 42 9 18 9 -14 29 -67 46 -118z
m238 -239 c3 -10 -13 -13 -57 -13 -48 0 -61 3 -61 15 0 13 11 15 57 13 34 -2
58 -8 61 -15z m180 -190 c3 -10 -37 -13 -177 -13 -155 0 -181 2 -181 15 0 13
24 15 177 13 130 -2 177 -6 181 -15z m50 -195 c3 -17 -10 -18 -172 -18 -97 0
-176 2 -176 4 0 2 -3 12 -6 20 -6 15 12 16 172 14 161 -3 179 -5 182 -20z m52
-193 c0 -13 -24 -15 -177 -13 -130 2 -177 6 -181 16 -3 9 37 12 177 12 155 0
181 -2 181 -15z m-517 -195 c6 -33 6 -33 -7 5 -7 22 -16 56 -19 75 -6 33 -6
33 7 -5 7 -22 16 -56 19 -75z m565 3 c3 -10 -37 -13 -177 -13 -155 0 -181 2
-181 15 0 13 24 15 177 13 130 -2 177 -6 181 -15z m-551 -65 c-3 -8 -6 -5 -6
6 -1 11 2 17 5 13 3 -3 4 -12 1 -19z m10 -40 c-3 -8 -6 -5 -6 6 -1 11 2 17 5
13 3 -3 4 -12 1 -19z m10 -40 c-3 -8 -6 -5 -6 6 -1 11 2 17 5 13 3 -3 4 -12 1
-19z m581 -51 c3 -16 -9 -17 -175 -15 -161 3 -178 5 -181 21 -3 16 9 17 175
15 161 -3 178 -5 181 -21z m-551 -59 c-3 -8 -6 -5 -6 6 -1 11 2 17 5 13 3 -3
4 -12 1 -19z m10 -40 c-3 -8 -6 -5 -6 6 -1 11 2 17 5 13 3 -3 4 -12 1 -19z
m593 -93 c0 -13 -24 -15 -177 -13 -130 2 -177 6 -181 16 -3 9 37 12 177 12
155 0 181 -2 181 -15z m48 -192 c3 -10 -37 -13 -177 -13 -155 0 -181 2 -181
15 0 13 24 15 177 13 130 -2 177 -6 181 -15z m46 -188 c5 -13 -19 -15 -174
-15 -153 0 -180 2 -180 15 0 13 26 15 174 15 145 0 175 -2 180 -15z m54 -198
c3 -16 -9 -17 -175 -15 -161 3 -178 5 -181 21 -3 16 9 17 175 15 161 -3 178
-5 181 -21z m56 -192 c5 -13 -19 -15 -179 -15 -158 0 -185 2 -185 15 0 13 27
15 179 15 150 0 180 -2 185 -15z m46 -190 c0 -13 -28 -15 -195 -15 -167 0
-195 2 -195 15 0 13 28 15 195 15 167 0 195 -2 195 -15z m-54 -191 c-3 -9 -6
-18 -6 -20 0 -6 -316 -5 -323 2 -3 3 -3 12 0 20 4 11 38 14 170 14 146 0 164
-2 159 -16z m-56 -199 c0 -13 -23 -15 -150 -15 -137 0 -163 4 -143 23 3 4 71
7 150 7 120 0 143 -2 143 -15z m-66 -190 c-5 -12 -31 -15 -145 -15 -119 0
-138 2 -133 15 5 12 31 15 145 15 119 0 138 -2 133 -15z m-1595 -60 c90 -22
211 -88 275 -150 62 -61 119 -166 136 -252 7 -31 10 -98 8 -148 -3 -78 -9
-102 -35 -156 -34 -69 -58 -96 -112 -126 -18 -10 -34 -23 -35 -28 -2 -17 92
-17 151 0 186 54 377 210 511 416 81 124 87 131 51 64 -136 -256 -394 -475
-607 -516 -108 -21 -272 5 -389 62 -48 23 -127 98 -156 149 l-19 31 44 -23
c34 -18 59 -23 123 -23 91 0 161 26 228 84 76 68 112 198 88 323 -23 115 -81
185 -201 242 -61 29 -72 31 -180 31 -112 0 -117 -1 -178 -34 -36 -20 -83 -56
-108 -85 -24 -28 -44 -47 -44 -43 0 5 26 36 58 69 110 115 231 150 391 113z
m1521 -140 c0 -13 -22 -15 -141 -15 -125 0 -140 2 -129 15 10 12 39 15 141 15
108 0 129 -2 129 -15z m-1977 -70 c-3 -9 -8 -14 -10 -11 -3 3 -2 9 2 15 9 16
15 13 8 -4z m1885 -122 c-3 -16 -19 -18 -131 -21 -70 -1 -127 -1 -127 2 0 2 3
11 6 20 5 13 26 16 131 16 113 0 124 -2 121 -17z m-110 -195 c-5 -15 -258 -24
-258 -10 0 19 18 22 138 22 94 0 123 -3 120 -12z m-138 -193 c-10 -12 -39 -15
-137 -15 -110 0 -124 2 -113 15 10 12 39 15 137 15 110 0 124 -2 113 -15z
m-170 -181 c0 -4 -8 -13 -17 -20 -13 -9 -55 -13 -145 -14 -71 0 -128 3 -128 6
0 4 8 13 18 20 12 9 54 13 145 14 70 0 127 -3 127 -6z"/>
</g>
</svg>
