<?xml version="1.0" standalone="no"?>
<!DOCTYPE svg PUBLIC "-//W3C//DTD SVG 20010904//EN"
 "http://www.w3.org/TR/2001/REC-SVG-20010904/DTD/svg10.dtd">
<svg version="1.0" xmlns="http://www.w3.org/2000/svg"
 width="640.000000pt" height="1280.000000pt" viewBox="0 0 640.000000 1280.000000"
 preserveAspectRatio="xMidYMid meet">
<metadata>
Created by potrace 1.15, written by Peter Selinger 2001-2017
</metadata>
<g transform="translate(0.000000,1280.000000) scale(0.100000,-0.100000)"
fill="#000000" stroke="none">
<path d="M2065 12791 c-126 -28 -238 -89 -300 -166 -19 -23 -49 -72 -67 -111
l-33 -69 2 -148 c3 -250 34 -466 148 -1047 113 -575 132 -710 145 -1050 17
-432 34 -555 165 -1220 52 -261 103 -536 114 -610 24 -167 44 -360 38 -367 -3
-2 -120 3 -261 11 -141 9 -282 16 -314 16 l-59 0 -6 -102 c-9 -175 -77 -348
-222 -568 -61 -93 -75 -108 -69 -80 3 19 53 179 110 354 57 176 101 322 99
325 -12 11 -135 -60 -190 -110 -154 -141 -214 -319 -245 -734 l-11 -140 -52
-44 c-93 -80 -247 -234 -312 -311 -181 -217 -263 -404 -329 -750 -43 -223 -51
-321 -50 -600 1 -522 69 -898 339 -1870 51 -184 110 -396 130 -470 46 -172 81
-252 196 -447 146 -250 178 -308 210 -385 67 -163 64 -119 64 -918 0 -546 3
-757 14 -855 7 -72 14 -131 15 -132 2 -2 79 -10 172 -18 93 -9 378 -38 634
-66 612 -65 859 -86 1182 -101 266 -12 268 -12 365 11 182 44 407 122 798 278
215 86 391 157 393 159 2 1 -4 116 -13 255 -42 663 -28 1080 46 1437 20 95 29
117 112 260 261 453 277 491 321 799 87 607 106 995 106 2186 0 1165 16 1676
66 2162 54 531 154 1016 298 1449 32 96 47 161 56 241 6 61 31 270 55 465 24
195 51 420 60 499 62 567 60 1059 -5 1433 -29 165 -75 343 -107 408 -37 76
-132 169 -213 208 -265 126 -630 7 -781 -253 -53 -90 -49 -70 -164 -900 -161
-1157 -280 -1741 -485 -2367 -44 -137 -69 -197 -95 -230 -67 -88 -197 -154
-373 -188 -34 -7 -65 -10 -69 -7 -3 4 -34 188 -69 409 -159 1022 -296 1774
-450 2468 -112 506 -272 1133 -312 1222 -70 158 -253 299 -462 358 -84 23
-269 35 -335 21z"/>
</g>
</svg>
