<?xml version="1.0" standalone="no"?>
<!DOCTYPE svg PUBLIC "-//W3C//DTD SVG 20010904//EN"
 "http://www.w3.org/TR/2001/REC-SVG-20010904/DTD/svg10.dtd">
<svg version="1.0" xmlns="http://www.w3.org/2000/svg"
 width="905.000000pt" height="1280.000000pt" viewBox="0 0 905.000000 1280.000000"
 preserveAspectRatio="xMidYMid meet">
<metadata>
Created by potrace 1.15, written by Peter Selinger 2001-2017
</metadata>
<g transform="translate(0.000000,1280.000000) scale(0.100000,-0.100000)"
fill="#000000" stroke="none">
<path d="M2431 7426 c-7 -9 -11 -41 -9 -82 l3 -68 59 -30 c219 -116 357 -359
410 -727 32 -219 48 -857 26 -998 -21 -124 -80 -199 -198 -247 -31 -13 -63
-24 -71 -24 -19 0 -8 -75 24 -170 43 -127 88 -186 175 -230 l36 -19 -7 -63
c-10 -82 6 -472 26 -658 85 -776 380 -1276 881 -1492 116 -50 201 -63 404 -63
191 0 263 9 430 51 119 29 207 62 313 116 45 24 85 44 89 46 5 2 17 -18 29
-45 11 -26 31 -62 45 -80 13 -17 24 -34 24 -36 0 -2 -19 -10 -42 -17 -67 -19
-111 -45 -158 -92 -44 -44 -90 -127 -90 -163 -1 -54 -10 -63 -78 -78 -158 -36
-282 -107 -394 -225 -196 -208 -320 -505 -370 -882 -13 -103 -14 -461 -1 -550
12 -81 34 -79 63 7 51 153 136 286 227 354 141 107 291 134 458 82 l60 -19 18
-69 c23 -88 43 -120 119 -191 69 -63 171 -117 256 -135 84 -17 218 -7 270 19
50 26 51 33 17 132 -52 153 -40 165 243 244 214 60 375 178 521 383 162 227
279 557 326 917 75 578 10 1261 -165 1728 -37 99 -34 99 -136 33 -49 -32 -113
-73 -141 -92 l-53 -34 0 364 0 363 56 18 c102 32 159 117 184 271 6 36 8 70 4
76 -3 5 -23 17 -45 26 -54 21 -133 110 -159 180 -38 102 -42 188 -37 711 5
535 11 610 63 790 34 118 60 168 112 219 l45 42 -68 132 c-37 72 -80 165 -95
207 l-28 77 -827 3 c-617 1 -831 -1 -842 -10 -10 -8 -13 -31 -11 -82 l3 -70
60 -31 c92 -47 209 -169 267 -280 132 -254 171 -503 172 -1080 l1 -370 -29
-62 c-34 -74 -103 -143 -179 -178 -28 -14 -57 -25 -64 -25 -22 0 -24 -19 -9
-84 34 -147 116 -265 208 -300 l45 -18 7 -261 c11 -391 -13 -720 -65 -908 -47
-170 -140 -305 -240 -349 -42 -18 -67 -21 -124 -18 -92 4 -128 30 -177 125
-101 194 -136 420 -144 918 l-5 330 44 26 c55 33 81 84 102 203 21 125 20 157
-6 163 -87 23 -162 102 -200 212 -23 64 -23 78 -27 489 -5 624 14 849 89 1044
23 59 45 94 86 138 l55 60 -60 117 c-33 65 -75 156 -93 203 -19 47 -38 88 -44
92 -5 4 -380 8 -831 8 -695 0 -823 -2 -833 -14z m1617 -98 c3 -13 36 -85 74
-160 l70 -138 -35 -40 c-77 -90 -124 -230 -148 -440 -17 -154 -24 -1123 -9
-1220 24 -151 76 -241 168 -292 l54 -31 -6 -51 c-3 -28 -18 -75 -33 -106 -25
-50 -33 -57 -82 -75 l-53 -20 6 -360 c5 -356 11 -439 42 -625 38 -226 116
-414 205 -494 62 -55 108 -70 210 -64 100 6 167 38 243 118 114 120 181 313
219 635 3 24 4 22 5 -10 2 -55 -23 -210 -54 -325 -44 -170 -141 -334 -239
-410 -85 -64 -247 -89 -366 -54 -177 51 -315 251 -394 574 -53 214 -75 470
-75 891 l0 286 -58 6 c-142 15 -220 88 -267 251 -20 68 -18 237 3 258 10 10
12 -14 10 -112 -2 -149 10 -193 66 -257 124 -141 346 -117 418 45 11 23 16 46
13 51 -3 6 -29 17 -58 25 -71 21 -117 53 -144 102 -40 72 -46 191 -40 733 9
756 30 937 134 1146 19 39 46 84 59 102 51 67 98 63 -671 63 -608 0 -696 -2
-701 -15 -4 -10 23 -43 79 -97 193 -189 291 -469 318 -908 16 -255 7 -849 -14
-918 -32 -108 -97 -184 -183 -212 -40 -14 -43 -33 -15 -89 25 -48 79 -95 127
-111 53 -18 153 -8 203 21 91 51 125 149 115 327 -4 71 -2 112 4 112 17 0 22
-41 22 -181 0 -163 -14 -213 -74 -274 -43 -43 -98 -65 -160 -65 -53 0 -59 -22
-64 -242 -9 -391 46 -807 145 -1092 144 -416 413 -680 790 -777 127 -32 238
-42 403 -36 281 10 409 59 630 242 l75 63 34 -72 c24 -50 53 -90 100 -136 165
-161 374 -193 588 -90 104 51 203 155 295 308 l40 67 -5 -110 c-4 -96 -32
-253 -44 -242 -2 2 4 34 12 71 17 74 15 86 -20 86 -24 0 -42 -18 -110 -115
-69 -98 -176 -192 -274 -238 -82 -40 -90 -42 -181 -42 -78 0 -104 4 -144 23
-102 47 -176 129 -218 244 -11 32 -25 58 -30 58 -6 0 -43 -21 -83 -46 -234
-145 -613 -227 -908 -195 -256 28 -450 123 -627 307 -251 262 -400 662 -462
1239 -11 110 -17 637 -7 693 3 20 -3 25 -49 41 -72 25 -106 60 -136 143 -33
87 -32 102 2 117 90 40 161 122 195 224 18 55 21 93 25 352 10 704 -49 1048
-222 1309 -62 93 -137 167 -226 222 -33 20 -60 41 -60 45 0 5 347 9 771 9
l771 0 6 -22z m2031 -75 c23 -54 56 -124 74 -156 l34 -58 -34 -37 c-63 -68
-107 -191 -139 -387 -26 -154 -33 -1169 -9 -1288 29 -145 92 -251 181 -303 24
-14 44 -31 44 -37 -1 -93 -121 -216 -212 -217 l-28 0 0 -479 c0 -270 4 -482 9
-485 8 -5 131 76 273 181 l48 35 11 -29 c52 -136 113 -422 146 -683 24 -198
24 -704 0 -895 -62 -477 -199 -822 -423 -1064 -123 -132 -244 -202 -461 -264
-205 -59 -244 -88 -251 -184 -3 -49 1 -67 25 -115 l29 -57 -28 -12 c-47 -19
-174 -7 -241 24 -74 34 -169 124 -195 185 -24 57 -36 115 -22 107 6 -3 10 -12
10 -19 0 -19 78 -104 111 -121 15 -8 41 -15 57 -15 l29 0 5 93 c8 149 66 250
134 233 25 -7 49 -27 86 -74 l17 -21 73 20 c305 85 535 298 703 651 195 411
259 983 179 1593 -30 230 -88 493 -110 502 -8 3 -44 -18 -81 -45 l-68 -51 0
-108 c0 -95 -3 -114 -26 -163 -47 -99 -119 -160 -175 -146 -55 14 -54 3 -54
788 0 398 -4 728 -8 733 -4 6 -32 18 -63 28 -124 38 -190 141 -197 309 -5 105
4 188 18 188 5 0 8 -56 7 -127 -2 -122 -1 -131 26 -185 48 -98 168 -167 267
-153 51 8 107 34 132 62 25 28 48 88 48 126 0 33 -2 34 -56 46 -44 10 -66 22
-98 54 -71 72 -70 59 -74 657 -6 876 22 1114 159 1342 27 44 46 84 43 89 -3 5
-313 9 -695 9 l-689 0 0 -21 c0 -12 29 -49 74 -92 152 -149 245 -344 290 -612
29 -167 38 -372 34 -765 -4 -367 -5 -388 -26 -452 -32 -94 -74 -146 -150 -183
-73 -36 -76 -47 -29 -125 41 -69 94 -100 182 -107 109 -9 194 45 242 153 13
29 17 68 17 154 1 67 5 116 11 118 15 5 23 -34 24 -113 1 -131 -48 -271 -111
-318 -43 -31 -61 -38 -128 -46 l-55 -6 3 -350 c1 -192 -2 -399 -7 -460 -7 -86
-7 -62 -3 110 2 121 1 327 -3 458 -6 208 -9 239 -24 244 -87 27 -143 75 -185
158 -44 89 -43 97 9 119 59 24 136 98 169 164 55 109 59 146 53 617 -4 318
-10 460 -22 545 -53 380 -179 621 -399 765 -42 27 -76 53 -76 57 0 4 344 8
763 8 l764 0 42 -97z m-2605 -2218 c4 -12 -6 -15 -64 -15 -64 0 -81 6 -63 23
3 4 32 7 64 7 41 0 58 -4 63 -15z m1990 0 c4 -12 -6 -15 -64 -15 -58 0 -68 3
-64 15 5 11 22 15 64 15 42 0 59 -4 64 -15z m-1869 -195 c0 -13 -28 -15 -177
-18 -145 -2 -178 0 -178 11 0 8 3 17 7 21 4 3 84 5 177 4 144 -3 171 -5 171
-18z m1985 0 c0 -19 -7 -20 -175 -20 -168 0 -175 1 -175 20 0 19 7 20 175 20
168 0 175 -1 175 -20z m-1980 -195 c0 -13 -27 -15 -180 -15 -153 0 -180 2
-180 15 0 13 27 15 180 15 153 0 180 -2 180 -15z m1980 0 c0 -13 -26 -15 -175
-15 -149 0 -175 2 -175 15 0 13 26 15 175 15 149 0 175 -2 175 -15z m-1980
-190 c0 -13 -27 -15 -180 -15 -153 0 -180 2 -180 15 0 13 27 15 180 15 153 0
180 -2 180 -15z m1980 0 c0 -13 -26 -15 -175 -15 -149 0 -175 2 -175 15 0 13
26 15 175 15 149 0 175 -2 175 -15z m-1985 -195 c0 -13 -26 -15 -175 -15 -159
0 -175 2 -178 18 -3 16 9 17 175 15 150 -3 178 -5 178 -18z m1985 0 c0 -19 -7
-20 -175 -20 -168 0 -175 1 -175 20 0 19 7 20 175 20 168 0 175 -1 175 -20z
m-1972 -193 c3 -16 -9 -17 -175 -15 -161 3 -178 5 -181 21 -3 16 9 17 175 15
161 -3 178 -5 181 -21z m1972 3 c0 -19 -7 -20 -175 -20 -168 0 -175 1 -175 20
0 19 7 20 175 20 168 0 175 -1 175 -20z m-1940 -195 c0 -13 -27 -15 -179 -15
-150 0 -180 2 -185 15 -5 13 19 15 179 15 158 0 185 -2 185 -15z m1940 0 c0
-13 -26 -15 -175 -15 -149 0 -175 2 -175 15 0 13 26 15 175 15 149 0 175 -2
175 -15z m-1892 -192 c3 -10 -38 -13 -182 -13 -160 0 -186 2 -186 15 0 13 24
15 182 13 134 -2 182 -6 186 -15z m1892 2 c0 -13 -26 -15 -175 -15 -149 0
-175 2 -175 15 0 13 26 15 175 15 149 0 175 -2 175 -15z m-1839 -186 c5 -8 9
-17 9 -21 0 -5 -81 -8 -179 -8 -144 0 -180 3 -184 14 -3 8 -4 16 -2 18 2 1 81
5 176 7 136 2 173 0 180 -10z m1839 -9 c0 -19 -7 -20 -175 -20 -168 0 -175 1
-175 20 0 19 7 20 175 20 168 0 175 -1 175 -20z m8 -192 c3 -17 -11 -18 -177
-18 -175 0 -181 1 -181 20 0 20 5 20 177 18 160 -3 178 -5 181 -20z m-1738 -3
c11 -13 -9 -15 -168 -15 -147 0 -182 3 -192 15 -11 13 9 15 168 15 147 0 182
-3 192 -15z m150 -190 c11 -13 -7 -15 -153 -15 -134 0 -167 3 -177 15 -11 13
7 15 153 15 134 0 167 -3 177 -15z m1628 -2 c3 -10 -38 -13 -182 -13 -160 0
-186 2 -186 15 0 13 24 15 182 13 134 -2 182 -6 186 -15z m211 -500 c-133
-236 -305 -386 -445 -387 -109 -2 -183 93 -192 244 l-4 79 63 -26 c165 -68
410 -21 550 106 24 22 48 40 52 41 5 0 -6 -26 -24 -57z m76 -50 c-100 -174
-256 -333 -398 -407 -120 -63 -206 -56 -278 22 -19 20 -23 27 -9 16 81 -69
176 -78 281 -27 122 60 275 212 383 381 47 73 60 82 21 15z m234 -311 c-7 -23
-15 -44 -18 -46 -8 -5 -3 329 6 374 5 23 10 -20 15 -125 6 -113 5 -172 -3
-203z m-1022 186 c-3 -7 -5 -2 -5 12 0 14 2 19 5 13 2 -7 2 -19 0 -25z m-155
-10 c-50 -82 -67 -231 -36 -320 17 -53 73 -122 115 -143 15 -8 42 -15 59 -15
27 0 31 -3 28 -22 -3 -20 -9 -23 -44 -22 -77 1 -167 83 -179 163 -14 83 -13
81 -54 81 -72 0 -216 -31 -277 -59 -75 -35 -179 -131 -239 -222 -91 -137 -172
-343 -215 -549 -28 -136 -62 -379 -55 -391 13 -20 26 -6 66 72 85 163 204 247
362 256 65 3 112 -2 227 -26 80 -16 148 -27 151 -23 3 4 14 37 23 74 31 117
97 191 189 212 43 10 138 -47 115 -70 -3 -2 -25 3 -50 13 -43 16 -49 16 -91
-1 -60 -23 -121 -85 -142 -144 -9 -26 -19 -80 -22 -119 -3 -40 -8 -73 -10 -73
-2 0 -22 9 -43 20 -107 55 -297 64 -430 21 -135 -43 -261 -140 -339 -261 l-41
-63 0 39 c0 124 50 428 96 589 72 248 156 408 284 536 116 118 231 174 383
188 l71 6 12 71 c12 70 37 131 76 187 27 38 34 34 10 -5z m1046 -383 c1 -87
-3 -127 -13 -145 -13 -22 -14 1 -15 207 0 127 3 240 8 250 8 21 19 -139 20
-312z m-167 -365 c-15 -23 -16 -7 -19 228 -2 190 1 258 10 275 11 18 14 -19
19 -228 5 -218 4 -253 -10 -275z m-163 -157 c-6 -7 -14 -13 -19 -13 -15 0 -11
524 4 539 16 16 32 -506 15 -526z m-167 -126 c-6 -6 -14 -7 -18 -3 -5 4 -10
132 -11 283 -3 223 -1 277 10 284 11 7 15 -41 22 -272 6 -201 5 -284 -3 -292z
m-177 527 c14 -5 16 -40 16 -281 0 -247 -2 -275 -16 -269 -9 3 -18 6 -20 6 -2
0 -4 124 -4 275 0 151 2 275 4 275 2 0 11 -3 20 -6z m-154 -240 c0 -61 -4 -93
-10 -89 -11 7 -14 168 -3 178 12 13 13 7 13 -89z"/>
</g>
</svg>
